# xmcd CD database file
#
# Track frame offsets:
#	183
#	42215
#	66805
#	86935
#	105263
#	131640
#	165430
#	181228
#
# Disc length: 2527 seconds
#
# Revision: 1
# Processed by: cddbd v1.5.2PL0 Copyright (c) Steve Scherf et al.
# Submitted via: jetAudio 5
#
DISCID=6009dd08
DTITLE=Various Artist - Nederblues Vol.1
DYEAR=1900
DGENRE=
TTITLE0=Jan Akkerman and Kaz Lux - Blue and green
TTITLE1=Jan Akkerman and Kaz Lux - Dark rose
TTITLE2=Flavium - Nobody know's you when your down and out
TTITLE3=Flavium - Nightlife
TTITLE4=The Oscar Benton blues band - How many more years
TTITLE5=The Oscar Benton blues band - I left my blues in San Francisco
TTITLE6=Cuby and Blizzards - Window of my eyes
TTITLE7=Cuby and Blizzards - Another day, another road
EXTD=
EXTT0=
EXTT1=
EXTT2=
EXTT3=
EXTT4=
EXTT5=
EXTT6=
EXTT7=
PLAYORDER=
